<?xml version="1.0" standalone="no"?>
<!DOCTYPE svg PUBLIC "-//W3C//DTD SVG 1.1//EN" 
  "http://www.w3.org/Graphics/SVG/1.1/DTD/svg11.dtd">
<svg width="40.000mm" height="128.500mm" version="1.1"
     viewBox="0 0 40.000 128.500"
     xmlns="http://www.w3.org/2000/svg"  xmlns:xlink="http://www.w3.org/1999/xlink" 
     xmlns:fpd="http://www.schaeffer-ag.de">
  <desc>Created with the Front Panel Designer by the export of the file 'offsets.fpd'.</desc>
  <defs>
    <pattern id="revside-fill" x="1" y="1" width="1.5" height="1.5" patternUnits="userSpaceOnUse">
      <line x1="0" y1="0" x2="1" y2="1" style="stroke-width:0.2; stroke:black; stroke-dasharray:none;" />
      <line x1="0" y1="1" x2="1" y2="0" style="stroke-width:0.2; stroke:black; stroke-dasharray:none;" />
    </pattern>
    <pattern id="revside-fill-silver" x="1" y="1" width="1.5" height="1.5" patternUnits="userSpaceOnUse">
      <line x1="0" y1="0" x2="1.5" y2="1.5" style="stroke-width:0.2; stroke:#e0e0e0; stroke-dasharray:none;" />
      <line x1="0" y1="1.5" x2="1.5" y2="0" style="stroke-width:0.2; stroke:#e0e0e0; stroke-dasharray:none;" />
    </pattern>
  </defs>
<g transform="scale(1,-1) translate( -0.000, -128.500)" 
   fill-rule="evenodd"
   style="stroke-linecap:round; stroke-linejoin:round; stroke-opacity:1.0; stroke-opacity:1.0;">
<path d="
M39.500 128.500
A0.500,0.500 0 0,0 40.000,128.000
L40.000 0.500
A0.500,0.500 0 0,0 39.500,0.000
L0.500 0.000
A0.500,0.500 0 0,0 0.000,0.500
L0.000 128.000
A0.500,0.500 0 0,0 0.500,128.500
L39.500 128.500
" 
fill="#21888f" vector-effect="non-scaling-stroke" stroke="#000000" stroke-width="0.100mm" />
<path d="
M5.166 13.284
L4.326 13.284
L4.326 10.284
L4.326 11.784
L4.851 11.784
" 
fill="none" vector-effect="non-scaling-stroke" stroke="#ebebeb" stroke-width="0.200mm" fpd:engraving="1" />
<path d="
M5.761 10.884
L5.761 11.634
A0.600,0.420 -90.000 0,0 6.601,11.634
L6.601 10.884
A0.600,0.420 -90.000 0,0 5.761,10.884
" 
fill="none" vector-effect="non-scaling-stroke" stroke="#ebebeb" stroke-width="0.200mm" fpd:engraving="1" />
<path d="
M7.196 12.234
L7.196 10.884
A0.600,0.420 -90.000 0,1 8.036,10.884
L8.036 10.284
L8.036 12.234
" 
fill="none" vector-effect="non-scaling-stroke" stroke="#ebebeb" stroke-width="0.200mm" fpd:engraving="1" />
<path d="
M8.614 12.234
L9.086 12.234
" 
fill="none" vector-effect="non-scaling-stroke" stroke="#ebebeb" stroke-width="0.200mm" fpd:engraving="1" />
<path d="
M8.823 13.284
L8.823 10.584
A0.381,0.267 -90.000 0,1 9.086,10.284
" 
fill="none" vector-effect="non-scaling-stroke" stroke="#ebebeb" stroke-width="0.200mm" fpd:engraving="1" />
<path d="
M9.663 12.534
L10.136 13.284
L10.136 10.284
" 
fill="none" vector-effect="non-scaling-stroke" stroke="#ebebeb" stroke-width="0.200mm" fpd:engraving="1" />
<path d="
M25.903 125.677
L25.903 125.110
A0.418,0.292 -90.000 0,1 26.197,124.690
A8.676,6.073 -90.000 0,1 26.962,124.690
A0.411,0.288 -90.000 0,1 27.241,125.047
L27.241 125.677
A0.439,0.307 -90.000 0,1 26.932,126.118
A10.896,7.627 -90.000 0,1 26.212,126.118
A0.439,0.307 -90.000 0,1 25.903,125.677
L25.977 125.698
L25.977 125.110
A0.343,0.240 -90.000 0,1 26.197,124.774
A5.791,4.054 -90.000 0,1 26.961,124.774
A0.343,0.240 -90.000 0,1 27.182,125.110
L27.182 125.698
A0.343,0.240 -90.000 0,1 26.961,126.034
A5.791,4.054 -90.000 0,1 26.197,126.034
A0.343,0.240 -90.000 0,1 25.977,125.698
L25.977 125.110
L25.859 124.942
A0.388,0.272 -90.000 0,1 26.050,124.627
A7.017,4.912 -90.000 0,1 26.976,124.627
A0.446,0.312 -90.000 0,1 27.300,124.963
L27.300 125.698
A0.501,0.351 -90.000 0,1 26.947,126.202
A6.411,4.488 -90.000 0,1 26.241,126.202
A0.535,0.375 -90.000 0,1 25.830,125.719
L25.830 124.858
A0.321,0.225 -90.000 0,1 26.035,124.543
A15.344,10.741 -90.000 0,1 27.050,124.543
A0.502,0.352 -90.000 0,1 27.373,124.942
L27.373 125.698
A0.604,0.423 -90.000 0,1 27.035,126.286
A13.789,9.652 -90.000 0,1 26.124,126.265
A0.534,0.374 -90.000 0,1 25.756,125.761
L25.756 124.837
A0.338,0.236 -90.000 0,1 25.977,124.501
A10.952,7.666 -90.000 0,1 27.182,124.501
A0.432,0.303 -90.000 0,1 27.417,124.879
L27.417 125.845
A0.488,0.342 -90.000 0,1 27.182,126.307
A8.026,5.618 -90.000 0,1 25.947,126.286
A0.381,0.266 -90.000 0,1 25.741,125.929
L25.683 125.971
L25.683 124.837
A0.376,0.264 -90.000 0,1 25.918,124.459
A10.024,7.017 -90.000 0,1 27.241,124.459
A0.376,0.264 -90.000 0,1 27.476,124.837
L27.476 125.971
A0.376,0.264 -90.000 0,1 27.241,126.349
A10.024,7.017 -90.000 0,1 25.918,126.349
A0.376,0.264 -90.000 0,1 25.683,125.971
" 
fill="none" vector-effect="non-scaling-stroke" stroke="#ebebeb" stroke-width="0.200mm" fpd:engraving="1" />
<path d="
M28.652 126.265
L28.431 126.265
A0.272,0.191 -90.000 0,1 28.255,125.971
L28.255 124.501
L28.182 124.501
L28.182 126.034
A0.294,0.206 -90.000 0,0 28.373,126.328
L28.681 126.328
L28.681 126.223
L28.520 126.223
A0.292,0.205 -90.000 0,1 28.314,125.929
L28.314 125.677
L27.961 125.677
L27.961 125.572
L28.696 125.572
L28.696 125.677
L28.314 125.677
L28.314 124.501
L28.373 124.438
L28.373 125.509
L28.740 125.509
L28.740 125.740
L28.373 125.740
L28.373 125.887
A0.303,0.212 -90.000 0,0 28.593,126.181
L28.711 126.181
L28.711 126.370
A3.007,2.105 -90.000 0,1 28.314,126.370
A0.332,0.233 -90.000 0,1 28.108,126.034
A9.335,6.535 -90.000 0,0 28.108,125.740
L27.917 125.740
L27.917 125.509
L28.108 125.509
L28.108 124.438
L28.373 124.438
" 
fill="none" vector-effect="non-scaling-stroke" stroke="#ebebeb" stroke-width="0.200mm" fpd:engraving="1" />
<path d="
M29.916 126.265
L29.696 126.265
A0.272,0.191 -90.000 0,1 29.519,125.971
L29.519 124.501
L29.446 124.501
L29.446 126.034
A0.294,0.206 -90.000 0,0 29.637,126.328
L29.946 126.328
L29.946 126.223
L29.784 126.223
A0.292,0.205 -90.000 0,1 29.578,125.929
L29.578 125.677
L29.225 125.677
L29.225 125.572
L29.960 125.572
L29.960 125.677
L29.578 125.677
L29.578 124.501
L29.637 124.438
L29.637 125.509
L30.004 125.509
L30.004 125.740
L29.637 125.740
L29.637 125.887
A0.303,0.212 -90.000 0,0 29.857,126.181
L29.975 126.181
L29.975 126.370
A3.007,2.105 -90.000 0,1 29.578,126.370
A0.332,0.233 -90.000 0,1 29.372,126.034
A9.335,6.535 -90.000 0,0 29.372,125.740
L29.181 125.740
L29.181 125.509
L29.372 125.509
L29.372 124.438
L29.637 124.438
" 
fill="none" vector-effect="non-scaling-stroke" stroke="#ebebeb" stroke-width="0.200mm" fpd:engraving="1" />
<path d="
M30.578 124.627
A0.120,0.084 -90.000 0,1 30.651,124.543
A9.178,6.425 -90.000 0,1 31.460,124.522
A0.231,0.162 -90.000 0,1 31.592,124.816
A0.222,0.155 -90.000 0,1 31.460,125.068
A16.676,11.673 -90.000 0,1 30.725,125.089
A0.305,0.213 -90.000 0,0 30.578,125.320
A0.434,0.304 -90.000 0,0 30.578,125.509
A0.214,0.149 -90.000 0,0 30.725,125.677
A5.681,3.977 -90.000 0,0 31.474,125.656
A0.178,0.125 -90.000 0,0 31.548,125.530
L31.621 125.530
A0.161,0.113 -90.000 0,1 31.518,125.698
A5.732,4.013 -90.000 0,1 30.637,125.698
A0.189,0.132 -90.000 0,1 30.519,125.530
A0.872,0.611 -90.000 0,1 30.519,125.257
A0.214,0.150 -90.000 0,1 30.666,125.068
L31.357 125.047
A0.242,0.169 -90.000 0,0 31.357,124.564
A14.676,10.273 -90.000 0,0 30.710,124.585
A0.088,0.062 -90.000 0,0 30.651,124.669
L30.489 124.669
A0.208,0.146 -90.000 0,1 30.622,124.501
A8.147,5.703 -90.000 0,1 31.519,124.501
A0.201,0.141 -90.000 0,1 31.651,124.711
A1.502,1.051 -90.000 0,1 31.651,124.900
A0.171,0.119 -90.000 0,1 31.548,125.089
A6.950,4.865 -90.000 0,1 30.784,125.131
A0.275,0.192 -90.000 0,0 30.754,125.656
A5.878,4.115 -90.000 0,0 31.401,125.635
A0.133,0.093 -90.000 0,0 31.474,125.509
L31.416 125.488
L31.680 125.488
A0.251,0.176 -90.000 0,1 31.519,125.740
A10.345,7.241 -90.000 0,1 30.607,125.740
A0.237,0.166 -90.000 0,1 30.460,125.488
L30.460 125.257
A0.217,0.152 -90.000 0,1 30.607,125.026
L31.298 125.026
A0.210,0.147 -90.000 0,0 31.298,124.606
L30.828 124.606
A0.176,0.123 -90.000 0,0 30.710,124.732
L30.445 124.732
L30.445 124.690
A0.229,0.160 -90.000 0,1 30.592,124.459
A11.012,7.709 -90.000 0,1 31.563,124.459
A0.229,0.160 -90.000 0,1 31.710,124.690
L31.710 124.900
A0.229,0.160 -90.000 0,1 31.563,125.131
L30.842 125.173
A0.221,0.155 -90.000 0,0 30.842,125.614
L31.298 125.614
A0.176,0.123 -90.000 0,0 31.416,125.488
" 
fill="none" vector-effect="non-scaling-stroke" stroke="#ebebeb" stroke-width="0.200mm" fpd:engraving="1" />
<path d="
M32.386 125.131
L33.180 125.131
L33.180 125.425
A0.282,0.197 -90.000 0,1 33.047,125.614
A2.904,2.033 -90.000 0,1 32.474,125.614
A0.231,0.162 -90.000 0,1 32.327,125.362
L32.327 125.131
L32.386 125.194
L33.121 125.194
L33.121 125.362
A0.190,0.133 -90.000 0,1 33.018,125.551
A1.735,1.215 -90.000 0,1 32.489,125.551
A0.208,0.145 -90.000 0,1 32.386,125.383
L32.386 125.194
L32.327 125.089
L32.327 124.774
A0.220,0.154 -90.000 0,1 32.489,124.564
A8.005,5.604 -90.000 0,1 33.018,124.564
A0.306,0.214 -90.000 0,1 33.180,124.711
L33.327 124.711
A0.311,0.218 -90.000 0,0 33.150,124.480
A6.678,4.674 -90.000 0,0 32.415,124.480
A0.303,0.212 -90.000 0,0 32.209,124.795
L32.209 125.404
A0.296,0.207 -90.000 0,0 32.415,125.698
A7.080,4.956 -90.000 0,0 33.194,125.677
A0.296,0.207 -90.000 0,0 33.327,125.404
L33.327 125.110
L33.253 125.110
L33.253 125.446
A0.249,0.174 -90.000 0,1 33.106,125.656
A4.490,3.143 -90.000 0,1 32.415,125.656
A0.282,0.197 -90.000 0,1 32.268,125.362
L32.268 124.774
A0.265,0.186 -90.000 0,1 32.445,124.522
A7.508,5.256 -90.000 0,1 33.106,124.522
A0.269,0.188 -90.000 0,1 33.253,124.711
L33.136 124.753
L33.385 124.753
L33.385 124.732
A0.310,0.217 -90.000 0,0 33.180,124.438
A12.453,8.717 -90.000 0,0 32.356,124.438
A0.310,0.217 -90.000 0,0 32.151,124.732
A7.561,5.293 -90.000 0,0 32.151,125.446
A0.310,0.217 -90.000 0,0 32.356,125.740
A7.479,5.235 -90.000 0,0 33.180,125.740
A0.310,0.217 -90.000 0,0 33.385,125.446
L33.385 125.068
L32.386 125.068
L32.386 124.837
A0.228,0.160 -90.000 0,1 32.533,124.627
A5.172,3.621 -90.000 0,1 32.988,124.627
A0.266,0.186 -90.000 0,1 33.135,124.753
" 
fill="none" vector-effect="non-scaling-stroke" stroke="#ebebeb" stroke-width="0.200mm" fpd:engraving="1" />
<path d="
M34.150 126.013
L34.150 124.858
A0.259,0.181 -90.000 0,1 34.267,124.585
A1.158,0.810 -90.000 0,1 34.694,124.585
A0.333,0.233 -90.000 0,1 34.826,124.879
L34.899 124.879
A0.371,0.260 -90.000 0,0 34.664,124.501
A3.118,2.183 -90.000 0,0 34.253,124.501
A0.302,0.212 -90.000 0,0 34.076,124.795
L34.076 126.013
L34.209 126.013
L34.209 125.593
L33.870 125.593
L33.870 125.677
L34.826 125.677
L34.826 125.593
L34.209 125.593
L34.209 124.879
A0.256,0.179 -90.000 0,1 34.356,124.627
A0.858,0.600 -90.000 0,1 34.635,124.648
A0.286,0.200 -90.000 0,1 34.753,124.879
L34.679 124.942
L34.944 124.942
L34.944 124.774
A0.338,0.236 -90.000 0,0 34.723,124.438
A7.561,5.293 -90.000 0,0 34.223,124.438
A0.333,0.233 -90.000 0,0 34.003,124.774
L34.003 125.530
L33.826 125.530
L33.826 125.740
L34.003 125.740
L34.003 126.076
L34.267 126.076
L34.267 125.740
L34.885 125.740
L34.885 125.530
L34.267 125.530
L34.267 124.942
A0.248,0.174 -90.000 0,1 34.414,124.690
A0.669,0.469 -90.000 0,1 34.532,124.690
A0.248,0.174 -90.000 0,1 34.679,124.942
" 
fill="none" vector-effect="non-scaling-stroke" stroke="#ebebeb" stroke-width="0.200mm" fpd:engraving="1" />
<path d="
M35.517 124.627
A0.120,0.084 -90.000 0,1 35.590,124.543
A9.178,6.425 -90.000 0,1 36.399,124.522
A0.231,0.162 -90.000 0,1 36.531,124.816
A0.222,0.155 -90.000 0,1 36.399,125.068
A16.676,11.673 -90.000 0,1 35.664,125.089
A0.305,0.213 -90.000 0,0 35.517,125.320
A0.434,0.304 -90.000 0,0 35.517,125.509
A0.214,0.149 -90.000 0,0 35.664,125.677
A5.681,3.977 -90.000 0,0 36.414,125.656
A0.178,0.125 -90.000 0,0 36.487,125.530
L36.561 125.530
A0.161,0.113 -90.000 0,1 36.458,125.698
A5.732,4.013 -90.000 0,1 35.576,125.698
A0.189,0.132 -90.000 0,1 35.458,125.530
A0.872,0.611 -90.000 0,1 35.458,125.257
A0.214,0.150 -90.000 0,1 35.605,125.068
L36.296 125.047
A0.242,0.169 -90.000 0,0 36.296,124.564
A14.676,10.273 -90.000 0,0 35.649,124.585
A0.088,0.062 -90.000 0,0 35.590,124.669
L35.429 124.669
A0.208,0.146 -90.000 0,1 35.561,124.501
A8.147,5.703 -90.000 0,1 36.458,124.501
A0.201,0.141 -90.000 0,1 36.590,124.711
A1.502,1.051 -90.000 0,1 36.590,124.900
A0.171,0.119 -90.000 0,1 36.487,125.089
A6.950,4.865 -90.000 0,1 35.723,125.131
A0.275,0.192 -90.000 0,0 35.693,125.656
A5.878,4.115 -90.000 0,0 36.340,125.635
A0.133,0.093 -90.000 0,0 36.414,125.509
L36.355 125.488
L36.619 125.488
A0.251,0.176 -90.000 0,1 36.458,125.740
A10.345,7.241 -90.000 0,1 35.546,125.740
A0.237,0.166 -90.000 0,1 35.399,125.488
L35.399 125.257
A0.217,0.152 -90.000 0,1 35.546,125.026
L36.237 125.026
A0.210,0.147 -90.000 0,0 36.237,124.606
L35.767 124.606
A0.176,0.123 -90.000 0,0 35.649,124.732
L35.385 124.732
L35.385 124.690
A0.229,0.160 -90.000 0,1 35.532,124.459
A11.012,7.709 -90.000 0,1 36.502,124.459
A0.229,0.160 -90.000 0,1 36.649,124.690
L36.649 124.900
A0.229,0.160 -90.000 0,1 36.502,125.131
L35.782 125.173
A0.221,0.155 -90.000 0,0 35.782,125.614
L36.237 125.614
A0.176,0.123 -90.000 0,0 36.355,125.488
" 
fill="none" vector-effect="non-scaling-stroke" stroke="#ebebeb" stroke-width="0.200mm" fpd:engraving="1" />
<path d="
M13.545 56.251
L12.705 56.251
L12.705 53.251
L12.705 54.751
L13.230 54.751
" 
fill="none" vector-effect="non-scaling-stroke" stroke="#ebebeb" stroke-width="0.200mm" fpd:engraving="1" />
<path d="
M14.123 55.501
L14.595 56.251
L14.595 53.251
" 
fill="none" vector-effect="non-scaling-stroke" stroke="#ebebeb" stroke-width="0.200mm" fpd:engraving="1" />
<path d="
M23.598 3.277
L23.598 2.080
L23.524 2.080
L23.524 3.277
L23.671 3.277
L23.671 2.080
L23.671 2.521
A2.005,1.403 -90.000 0,0 23.774,3.067
A0.530,0.371 -90.000 0,0 24.083,3.277
A4.672,3.270 -90.000 0,0 24.495,3.277
A0.331,0.232 -90.000 0,0 24.671,2.983
L24.671 2.101
L24.598 2.101
L24.598 2.983
A0.285,0.200 -90.000 0,1 24.436,3.214
A2.896,2.027 -90.000 0,1 24.054,3.214
A0.819,0.574 -90.000 0,1 23.833,3.109
A0.968,0.677 -90.000 0,0 24.083,3.172
A4.453,3.117 -90.000 0,0 24.377,3.151
A0.240,0.168 -90.000 0,0 24.524,2.920
L24.524 2.101
L24.465 2.038
L24.730 2.038
L24.730 3.004
A0.333,0.233 -90.000 0,1 24.509,3.340
A7.116,4.981 -90.000 0,1 24.039,3.340
A0.462,0.323 -90.000 0,1 23.730,2.878
L23.730 3.340
L23.466 3.340
L23.466 2.038
L23.730 2.038
L23.730 2.836
A0.281,0.197 -90.000 0,0 23.907,3.109
A2.484,1.739 -90.000 0,0 24.289,3.109
A0.281,0.197 -90.000 0,0 24.465,2.836
L24.465 2.038
" 
fill="none" vector-effect="non-scaling-stroke" stroke="#ebebeb" stroke-width="0.200mm" fpd:engraving="1" />
<path d="
M25.465 3.235
A0.289,0.202 -90.000 0,1 25.362,3.151
L25.244 3.151
A0.235,0.164 -90.000 0,0 25.362,3.277
A12.675,8.873 -90.000 0,0 26.200,3.277
A0.292,0.204 -90.000 0,0 26.332,2.962
L26.332 2.101
L26.259 2.101
L26.259 3.004
A0.209,0.146 -90.000 0,1 26.112,3.214
A0.191,0.134 -90.000 0,0 26.200,3.004
L26.200 2.101
L26.200 2.416
L26.141 2.416
A0.427,0.299 -90.000 0,0 26.097,2.269
A0.444,0.311 -90.000 0,0 25.994,2.143
L25.935 2.101
L25.862 2.059
L25.406 2.059
A0.325,0.227 -90.000 0,0 25.215,2.416
L25.215 2.521
A0.306,0.214 -90.000 0,0 25.377,2.794
L25.862 2.794
A0.462,0.324 -90.000 0,0 25.979,2.752
L25.906 2.752
L25.435 2.752
A0.321,0.225 -90.000 0,1 25.465,2.122
L25.862 2.122
A0.275,0.193 -90.000 0,1 25.965,2.164
L25.465 2.164
A0.293,0.205 -90.000 0,0 25.465,2.710
L26.053 2.710
L25.965 2.689
L25.582 2.689
A0.242,0.169 -90.000 0,1 25.582,2.206
L25.965 2.206
A0.241,0.169 -90.000 0,1 25.965,2.689
L25.877 2.836
A11.671,8.170 -90.000 0,1 25.362,2.836
A0.286,0.200 -90.000 0,1 25.171,2.542
L25.171 2.332
A0.286,0.200 -90.000 0,1 25.362,2.038
A11.671,8.170 -90.000 0,1 25.877,2.038
A0.392,0.274 -90.000 0,1 26.141,2.416
L26.141 2.038
L26.406 2.038
L26.406 3.004
A0.333,0.233 -90.000 0,1 26.185,3.340
A12.008,8.406 -90.000 0,1 25.391,3.340
A0.292,0.204 -90.000 0,1 25.171,3.088
L25.435 3.088
A0.239,0.167 -90.000 0,0 25.582,3.214
L25.994 3.214
A0.209,0.146 -90.000 0,0 26.141,3.004
L26.141 2.458
A0.392,0.274 -90.000 0,1 25.876,2.836
" 
fill="none" vector-effect="non-scaling-stroke" stroke="#ebebeb" stroke-width="0.200mm" fpd:engraving="1" />
<path d="
M26.979 3.277
L26.979 2.080
L26.905 2.080
L26.905 3.277
L27.052 3.277
L27.052 2.080
L27.052 2.521
A2.005,1.403 -90.000 0,0 27.155,3.067
A0.530,0.371 -90.000 0,0 27.464,3.277
A4.672,3.270 -90.000 0,0 27.876,3.277
A0.331,0.232 -90.000 0,0 28.052,2.983
L28.052 2.101
L27.979 2.101
L27.979 2.983
A0.285,0.200 -90.000 0,1 27.817,3.214
A2.896,2.027 -90.000 0,1 27.435,3.214
A0.819,0.574 -90.000 0,1 27.214,3.109
A0.968,0.677 -90.000 0,0 27.464,3.172
A4.453,3.117 -90.000 0,0 27.758,3.151
A0.240,0.168 -90.000 0,0 27.905,2.920
L27.905 2.101
L27.846 2.038
L28.111 2.038
L28.111 3.004
A0.333,0.233 -90.000 0,1 27.890,3.340
A7.116,4.981 -90.000 0,1 27.420,3.340
A0.462,0.323 -90.000 0,1 27.111,2.878
L27.111 3.340
L26.847 3.340
L26.847 2.038
L27.111 2.038
L27.111 2.836
A0.281,0.197 -90.000 0,0 27.288,3.109
A2.484,1.739 -90.000 0,0 27.670,3.109
A0.281,0.197 -90.000 0,0 27.846,2.836
L27.846 2.038
" 
fill="none" vector-effect="non-scaling-stroke" stroke="#ebebeb" stroke-width="0.200mm" fpd:engraving="1" />
<path d="
M28.875 3.613
L28.875 2.458
A0.259,0.181 -90.000 0,1 28.993,2.185
A1.158,0.810 -90.000 0,1 29.419,2.185
A0.333,0.233 -90.000 0,1 29.552,2.479
L29.625 2.479
A0.371,0.260 -90.000 0,0 29.390,2.101
A3.118,2.183 -90.000 0,0 28.978,2.101
A0.302,0.212 -90.000 0,0 28.802,2.395
L28.802 3.613
L28.934 3.613
L28.934 3.193
L28.596 3.193
L28.596 3.277
L29.551 3.277
L29.551 3.193
L28.934 3.193
L28.934 2.479
A0.256,0.179 -90.000 0,1 29.081,2.227
A0.858,0.600 -90.000 0,1 29.360,2.248
A0.286,0.200 -90.000 0,1 29.478,2.479
L29.404 2.542
L29.669 2.542
L29.669 2.374
A0.338,0.236 -90.000 0,0 29.449,2.038
A7.561,5.293 -90.000 0,0 28.949,2.038
A0.333,0.233 -90.000 0,0 28.728,2.374
L28.728 3.130
L28.552 3.130
L28.552 3.340
L28.728 3.340
L28.728 3.676
L28.993 3.676
L28.993 3.340
L29.610 3.340
L29.610 3.130
L28.993 3.130
L28.993 2.542
A0.248,0.174 -90.000 0,1 29.140,2.290
A0.669,0.469 -90.000 0,1 29.258,2.290
A0.248,0.174 -90.000 0,1 29.405,2.542
" 
fill="none" vector-effect="non-scaling-stroke" stroke="#ebebeb" stroke-width="0.200mm" fpd:engraving="1" />
<path d="
M30.301 2.836
A2.836,1.986 -90.000 0,1 30.301,2.479
A0.317,0.222 -90.000 0,1 30.536,2.227
A2.829,1.981 -90.000 0,1 31.095,2.227
A0.317,0.222 -90.000 0,1 31.271,2.563
A2.670,1.869 -90.000 0,1 31.271,2.899
A0.266,0.186 -90.000 0,1 31.139,3.130
A3.287,2.301 -90.000 0,1 30.419,3.130
A0.290,0.203 -90.000 0,1 30.301,2.836
L30.375 2.857
A1.529,1.070 -90.000 0,1 30.375,2.521
A0.264,0.185 -90.000 0,1 30.536,2.290
A3.248,2.274 -90.000 0,1 31.036,2.290
A0.264,0.185 -90.000 0,1 31.198,2.521
A1.529,1.070 -90.000 0,1 31.198,2.857
A0.264,0.185 -90.000 0,1 31.036,3.088
A3.248,2.274 -90.000 0,1 30.536,3.088
A0.264,0.185 -90.000 0,1 30.375,2.857
L30.242 2.878
A3.504,2.453 -90.000 0,1 30.242,2.437
A0.340,0.238 -90.000 0,1 30.492,2.164
A2.953,2.067 -90.000 0,1 31.139,2.185
A0.270,0.189 -90.000 0,1 31.330,2.416
A4.004,2.803 -90.000 0,1 31.330,2.920
A0.314,0.220 -90.000 0,1 31.095,3.214
A7.510,5.257 -90.000 0,1 30.433,3.193
A0.270,0.189 -90.000 0,1 30.242,2.878
L30.184 2.962
A4.505,3.154 -90.000 0,1 30.184,2.395
A0.338,0.236 -90.000 0,1 30.419,2.101
A4.687,3.281 -90.000 0,1 31.242,2.122
A0.248,0.174 -90.000 0,1 31.389,2.374
A5.339,3.738 -90.000 0,1 31.389,3.046
A0.324,0.227 -90.000 0,1 31.154,3.277
A8.676,6.073 -90.000 0,1 30.389,3.277
A0.292,0.204 -90.000 0,1 30.184,2.962
L30.125 3.046
A5.673,3.971 -90.000 0,1 30.125,2.332
A0.314,0.220 -90.000 0,1 30.331,2.038
A10.345,7.241 -90.000 0,1 31.242,2.038
A0.314,0.220 -90.000 0,1 31.448,2.332
A5.673,3.971 -90.000 0,1 31.448,3.046
A0.314,0.220 -90.000 0,1 31.242,3.340
A10.345,7.241 -90.000 0,1 30.331,3.340
A0.314,0.220 -90.000 0,1 30.125,3.046
" 
fill="none" vector-effect="non-scaling-stroke" stroke="#ebebeb" stroke-width="0.200mm" fpd:engraving="1" />
<path d="
M32.036 3.277
L32.036 2.080
L31.962 2.080
L31.962 3.277
L32.109 3.277
L32.109 2.080
L32.109 2.521
A2.005,1.403 -90.000 0,0 32.212,3.067
A0.530,0.371 -90.000 0,0 32.521,3.277
A4.672,3.270 -90.000 0,0 32.932,3.277
A0.331,0.232 -90.000 0,0 33.109,2.983
L33.109 2.101
L33.035 2.101
L33.035 2.983
A0.285,0.200 -90.000 0,1 32.874,3.214
A2.896,2.027 -90.000 0,1 32.492,3.214
A0.819,0.574 -90.000 0,1 32.271,3.109
A0.968,0.677 -90.000 0,0 32.521,3.172
A4.453,3.117 -90.000 0,0 32.815,3.151
A0.240,0.168 -90.000 0,0 32.962,2.920
L32.962 2.101
L32.903 2.038
L33.168 2.038
L33.168 3.004
A0.333,0.233 -90.000 0,1 32.947,3.340
A7.116,4.981 -90.000 0,1 32.477,3.340
A0.462,0.323 -90.000 0,1 32.168,2.878
L32.168 3.340
L31.903 3.340
L31.903 2.038
L32.168 2.038
L32.168 2.836
A0.281,0.197 -90.000 0,0 32.344,3.109
A2.484,1.739 -90.000 0,0 32.727,3.109
A0.281,0.197 -90.000 0,0 32.903,2.836
L32.903 2.038
" 
fill="none" vector-effect="non-scaling-stroke" stroke="#ebebeb" stroke-width="0.200mm" fpd:engraving="1" />
<path d="
M33.800 2.836
A2.836,1.986 -90.000 0,1 33.800,2.479
A0.317,0.222 -90.000 0,1 34.035,2.227
A2.829,1.981 -90.000 0,1 34.594,2.227
A0.317,0.222 -90.000 0,1 34.770,2.563
A2.670,1.869 -90.000 0,1 34.770,2.899
A0.266,0.186 -90.000 0,1 34.638,3.130
A3.287,2.301 -90.000 0,1 33.917,3.130
A0.290,0.203 -90.000 0,1 33.800,2.836
L33.873 2.857
A1.529,1.070 -90.000 0,1 33.873,2.521
A0.264,0.185 -90.000 0,1 34.035,2.290
A3.248,2.274 -90.000 0,1 34.535,2.290
A0.264,0.185 -90.000 0,1 34.696,2.521
A1.529,1.070 -90.000 0,1 34.696,2.857
A0.264,0.185 -90.000 0,1 34.535,3.088
A3.248,2.274 -90.000 0,1 34.035,3.088
A0.264,0.185 -90.000 0,1 33.873,2.857
L33.741 2.878
A3.504,2.453 -90.000 0,1 33.741,2.437
A0.340,0.238 -90.000 0,1 33.991,2.164
A2.953,2.067 -90.000 0,1 34.638,2.185
A0.270,0.189 -90.000 0,1 34.829,2.416
A4.004,2.803 -90.000 0,1 34.829,2.920
A0.314,0.220 -90.000 0,1 34.594,3.214
A7.510,5.257 -90.000 0,1 33.932,3.193
A0.270,0.189 -90.000 0,1 33.741,2.878
L33.682 2.962
A4.505,3.154 -90.000 0,1 33.682,2.395
A0.338,0.236 -90.000 0,1 33.917,2.101
A4.687,3.281 -90.000 0,1 34.741,2.122
A0.248,0.174 -90.000 0,1 34.888,2.374
A5.339,3.738 -90.000 0,1 34.888,3.046
A0.324,0.227 -90.000 0,1 34.652,3.277
A8.676,6.073 -90.000 0,1 33.888,3.277
A0.292,0.204 -90.000 0,1 33.682,2.962
L33.623 3.046
A5.673,3.971 -90.000 0,1 33.623,2.332
A0.314,0.220 -90.000 0,1 33.829,2.038
A10.345,7.241 -90.000 0,1 34.741,2.038
A0.314,0.220 -90.000 0,1 34.946,2.332
A5.673,3.971 -90.000 0,1 34.946,3.046
A0.314,0.220 -90.000 0,1 34.741,3.340
A10.345,7.241 -90.000 0,1 33.829,3.340
A0.314,0.220 -90.000 0,1 33.623,3.046
" 
fill="none" vector-effect="non-scaling-stroke" stroke="#ebebeb" stroke-width="0.200mm" fpd:engraving="1" />
<path d="
M35.534 2.227
A0.120,0.084 -90.000 0,1 35.608,2.143
A9.178,6.425 -90.000 0,1 36.416,2.122
A0.231,0.162 -90.000 0,1 36.549,2.416
A0.222,0.155 -90.000 0,1 36.416,2.668
A16.676,11.673 -90.000 0,1 35.681,2.689
A0.305,0.213 -90.000 0,0 35.534,2.920
A0.434,0.304 -90.000 0,0 35.534,3.109
A0.214,0.149 -90.000 0,0 35.681,3.277
A5.681,3.977 -90.000 0,0 36.431,3.256
A0.178,0.125 -90.000 0,0 36.505,3.130
L36.578 3.130
A0.161,0.113 -90.000 0,1 36.475,3.298
A5.732,4.013 -90.000 0,1 35.593,3.298
A0.189,0.132 -90.000 0,1 35.476,3.130
A0.872,0.611 -90.000 0,1 35.476,2.857
A0.214,0.150 -90.000 0,1 35.623,2.668
L36.313 2.647
A0.242,0.169 -90.000 0,0 36.313,2.164
A14.676,10.273 -90.000 0,0 35.667,2.185
A0.088,0.062 -90.000 0,0 35.608,2.269
L35.446 2.269
A0.208,0.146 -90.000 0,1 35.578,2.101
A8.147,5.703 -90.000 0,1 36.475,2.101
A0.201,0.141 -90.000 0,1 36.608,2.311
A1.502,1.051 -90.000 0,1 36.608,2.500
A0.171,0.119 -90.000 0,1 36.505,2.689
A6.950,4.865 -90.000 0,1 35.740,2.731
A0.275,0.192 -90.000 0,0 35.711,3.256
A5.878,4.115 -90.000 0,0 36.358,3.235
A0.133,0.093 -90.000 0,0 36.431,3.109
L36.372 3.088
L36.637 3.088
A0.251,0.176 -90.000 0,1 36.475,3.340
A10.345,7.241 -90.000 0,1 35.564,3.340
A0.237,0.166 -90.000 0,1 35.417,3.088
L35.417 2.857
A0.217,0.152 -90.000 0,1 35.564,2.626
L36.255 2.626
A0.210,0.147 -90.000 0,0 36.255,2.206
L35.784 2.206
A0.176,0.123 -90.000 0,0 35.667,2.332
L35.402 2.332
L35.402 2.290
A0.229,0.160 -90.000 0,1 35.549,2.059
A11.012,7.709 -90.000 0,1 36.519,2.059
A0.229,0.160 -90.000 0,1 36.666,2.290
L36.666 2.500
A0.229,0.160 -90.000 0,1 36.519,2.731
L35.799 2.773
A0.221,0.155 -90.000 0,0 35.799,3.214
L36.255 3.214
A0.176,0.123 -90.000 0,0 36.372,3.088
" 
fill="none" vector-effect="non-scaling-stroke" stroke="#ebebeb" stroke-width="0.200mm" fpd:engraving="1" />
<path d="
M2.624 116.881
L4.268 115.237
A0.675,0.472 -45.000 0,1 4.936,115.906
L3.292 117.550
" 
fill="none" vector-effect="non-scaling-stroke" stroke="#ebebeb" stroke-width="0.200mm" fpd:engraving="1" />
<path d="
M3.701 117.958
L5.557 116.102
A0.421,0.295 -45.000 0,1 6.008,116.022
" 
fill="none" vector-effect="non-scaling-stroke" stroke="#ebebeb" stroke-width="0.200mm" fpd:engraving="1" />
<path d="
M5.037 117.809
L5.371 118.144
" 
fill="none" vector-effect="non-scaling-stroke" stroke="#ebebeb" stroke-width="0.200mm" fpd:engraving="1" />
<path d="
M4.443 118.700
L6.352 116.791
A0.381,0.267 -45.000 0,1 6.750,116.765
" 
fill="none" vector-effect="non-scaling-stroke" stroke="#ebebeb" stroke-width="0.200mm" fpd:engraving="1" />
<path d="
M7.171 117.185
L5.792 118.564
L6.004 118.352
A0.424,0.297 -45.000 0,0 6.269,118.829
" 
fill="none" vector-effect="non-scaling-stroke" stroke="#ebebeb" stroke-width="0.200mm" fpd:engraving="1" />
<path d="
M6.796 119.144
A0.636,0.445 -45.000 0,0 7.390,119.738
A0.204,0.143 -45.000 0,0 7.475,119.505
L7.300 119.012
A0.630,0.441 -45.000 0,1 8.297,118.311
A0.545,0.381 -45.000 0,1 8.185,118.943
L7.390 119.738
L8.185 118.943
A0.798,0.558 -45.000 0,1 8.705,118.720
" 
fill="none" vector-effect="non-scaling-stroke" stroke="#ebebeb" stroke-width="0.200mm" fpd:engraving="1" />
<path d="
M7.599 121.856
L7.005 121.262
L9.126 119.141
L8.065 120.201
L8.436 120.572
" 
fill="none" vector-effect="non-scaling-stroke" stroke="#ebebeb" stroke-width="0.200mm" fpd:engraving="1" />
<path d="
M8.019 122.277
L8.178 122.117
" 
fill="none" vector-effect="non-scaling-stroke" stroke="#ebebeb" stroke-width="0.200mm" fpd:engraving="1" />
<path d="
M8.762 121.534
L10.141 120.155
" 
fill="none" vector-effect="non-scaling-stroke" stroke="#ebebeb" stroke-width="0.200mm" fpd:engraving="1" />
<path d="
M10.561 120.576
L9.182 121.955
L9.607 121.531
A0.600,0.420 -45.000 0,0 10.201,122.125
L11.155 121.170
" 
fill="none" vector-effect="non-scaling-stroke" stroke="#ebebeb" stroke-width="0.200mm" fpd:engraving="1" />
<path d="
M10.834 122.333
L11.428 122.927
L11.162 123.192
A0.603,0.422 -45.000 0,1 10.568,122.598
L11.205 121.962
A0.605,0.424 -45.000 0,1 11.799,122.556
" 
fill="none" vector-effect="non-scaling-stroke" stroke="#ebebeb" stroke-width="0.200mm" fpd:engraving="1" />
<path d="
M17.925 57.600
L16.738 59.656
" 
fill="none" vector-effect="non-scaling-stroke" stroke="#ebebeb" stroke-width="0.400mm" fpd:engraving="1" />
<path d="
M18.998 61.917
L21.054 60.729
" 
fill="none" vector-effect="non-scaling-stroke" stroke="#ebebeb" stroke-width="0.400mm" fpd:engraving="1" />
<path d="
M22.200 65.004
L19.825 65.004
" 
fill="none" vector-effect="non-scaling-stroke" stroke="#ebebeb" stroke-width="0.400mm" fpd:engraving="1" />
<path d="
M18.998 68.092
L21.054 69.279
" 
fill="none" vector-effect="non-scaling-stroke" stroke="#ebebeb" stroke-width="0.400mm" fpd:engraving="1" />
<path d="
M17.925 72.408
L16.738 70.352
" 
fill="none" vector-effect="non-scaling-stroke" stroke="#ebebeb" stroke-width="0.400mm" fpd:engraving="1" />
<path d="
M13.650 71.179
L13.650 73.554
" 
fill="none" vector-effect="non-scaling-stroke" stroke="#ebebeb" stroke-width="0.400mm" fpd:engraving="1" />
<path d="
M9.375 72.408
L10.562 70.352
" 
fill="none" vector-effect="non-scaling-stroke" stroke="#ebebeb" stroke-width="0.400mm" fpd:engraving="1" />
<path d="
M8.302 68.092
L6.246 69.279
" 
fill="none" vector-effect="non-scaling-stroke" stroke="#ebebeb" stroke-width="0.400mm" fpd:engraving="1" />
<path d="
M5.100 65.004
L7.475 65.004
" 
fill="none" vector-effect="non-scaling-stroke" stroke="#ebebeb" stroke-width="0.400mm" fpd:engraving="1" />
<path d="
M9.375 57.600
L10.562 59.656
" 
fill="none" vector-effect="non-scaling-stroke" stroke="#ebebeb" stroke-width="0.400mm" fpd:engraving="1" />
<path d="
M8.302 61.917
L6.246 60.729
" 
fill="none" vector-effect="non-scaling-stroke" stroke="#ebebeb" stroke-width="0.400mm" fpd:engraving="1" />
<path d="
M19.024 59.630
L18.016 60.638
" 
fill="none" vector-effect="non-scaling-stroke" stroke="#ebebeb" stroke-width="0.200mm" fpd:engraving="1" />
<path d="
M20.991 63.037
L19.615 63.406
" 
fill="none" vector-effect="non-scaling-stroke" stroke="#ebebeb" stroke-width="0.200mm" fpd:engraving="1" />
<path d="
M20.991 66.971
L19.615 66.602
" 
fill="none" vector-effect="non-scaling-stroke" stroke="#ebebeb" stroke-width="0.200mm" fpd:engraving="1" />
<path d="
M19.024 70.378
L18.016 69.370
" 
fill="none" vector-effect="non-scaling-stroke" stroke="#ebebeb" stroke-width="0.200mm" fpd:engraving="1" />
<path d="
M15.617 72.345
L15.248 70.969
" 
fill="none" vector-effect="non-scaling-stroke" stroke="#ebebeb" stroke-width="0.200mm" fpd:engraving="1" />
<path d="
M11.683 72.345
L12.052 70.969
" 
fill="none" vector-effect="non-scaling-stroke" stroke="#ebebeb" stroke-width="0.200mm" fpd:engraving="1" />
<path d="
M8.276 70.378
L9.284 69.370
" 
fill="none" vector-effect="non-scaling-stroke" stroke="#ebebeb" stroke-width="0.200mm" fpd:engraving="1" />
<path d="
M6.309 66.971
L7.685 66.602
" 
fill="none" vector-effect="non-scaling-stroke" stroke="#ebebeb" stroke-width="0.200mm" fpd:engraving="1" />
<path d="
M6.309 63.037
L7.685 63.406
" 
fill="none" vector-effect="non-scaling-stroke" stroke="#ebebeb" stroke-width="0.200mm" fpd:engraving="1" />
<path d="
M9.284 60.638
L8.276 59.630
" 
fill="none" vector-effect="non-scaling-stroke" stroke="#ebebeb" stroke-width="0.200mm" fpd:engraving="1" />
<path d="
M30.422 13.284
L29.582 13.284
L29.582 10.284
L29.582 11.784
L30.107 11.784
" 
fill="none" vector-effect="non-scaling-stroke" stroke="#ebebeb" stroke-width="0.200mm" fpd:engraving="1" />
<path d="
M31.017 10.884
L31.017 11.634
A0.600,0.420 -90.000 0,0 31.857,11.634
L31.857 10.884
A0.600,0.420 -90.000 0,0 31.017,10.884
" 
fill="none" vector-effect="non-scaling-stroke" stroke="#ebebeb" stroke-width="0.200mm" fpd:engraving="1" />
<path d="
M32.452 12.234
L32.452 10.884
A0.600,0.420 -90.000 0,1 33.292,10.884
L33.292 10.284
L33.292 12.234
" 
fill="none" vector-effect="non-scaling-stroke" stroke="#ebebeb" stroke-width="0.200mm" fpd:engraving="1" />
<path d="
M33.870 12.234
L34.342 12.234
" 
fill="none" vector-effect="non-scaling-stroke" stroke="#ebebeb" stroke-width="0.200mm" fpd:engraving="1" />
<path d="
M34.080 13.284
L34.080 10.584
A0.381,0.267 -90.000 0,1 34.342,10.284
" 
fill="none" vector-effect="non-scaling-stroke" stroke="#ebebeb" stroke-width="0.200mm" fpd:engraving="1" />
<path d="
M34.920 12.609
A0.619,0.433 -90.000 0,0 35.340,13.284
A0.654,0.458 -90.000 0,0 35.760,12.309
L34.920 10.284
L35.812 10.284
" 
fill="none" vector-effect="non-scaling-stroke" stroke="#ebebeb" stroke-width="0.200mm" fpd:engraving="1" />
<path d="
M17.279 11.784
L17.752 11.784
A0.750,0.525 -90.000 0,1 17.752,13.284
L17.279 13.284
L17.279 10.284
" 
fill="none" vector-effect="non-scaling-stroke" stroke="#ebebeb" stroke-width="0.200mm" fpd:engraving="1" />
<path d="
M18.872 13.284
L18.872 13.059
" 
fill="none" vector-effect="non-scaling-stroke" stroke="#ebebeb" stroke-width="0.200mm" fpd:engraving="1" />
<path d="
M18.872 12.234
L18.872 10.284
" 
fill="none" vector-effect="non-scaling-stroke" stroke="#ebebeb" stroke-width="0.200mm" fpd:engraving="1" />
<path d="
M19.449 12.234
L19.922 12.234
" 
fill="none" vector-effect="non-scaling-stroke" stroke="#ebebeb" stroke-width="0.200mm" fpd:engraving="1" />
<path d="
M19.659 13.284
L19.659 10.584
A0.381,0.267 -90.000 0,1 19.922,10.284
" 
fill="none" vector-effect="non-scaling-stroke" stroke="#ebebeb" stroke-width="0.200mm" fpd:engraving="1" />
<path d="
M21.287 11.934
A0.593,0.415 -90.000 0,1 20.499,11.634
L20.499 10.959
A0.574,0.402 -90.000 0,1 21.287,10.734
" 
fill="none" vector-effect="non-scaling-stroke" stroke="#ebebeb" stroke-width="0.200mm" fpd:engraving="1" />
<path d="
M21.882 10.284
L21.882 13.284
L21.882 11.859
A0.617,0.432 -90.000 0,0 22.722,11.634
L22.722 10.284
" 
fill="none" vector-effect="non-scaling-stroke" stroke="#ebebeb" stroke-width="0.200mm" fpd:engraving="1" />
<path d="
M6.180 27.254
L5.340 27.254
L5.340 24.254
L5.340 25.754
L5.865 25.754
" 
fill="none" vector-effect="non-scaling-stroke" stroke="#ebebeb" stroke-width="0.200mm" fpd:engraving="1" />
<path d="
M6.775 27.254
L6.775 27.029
" 
fill="none" vector-effect="non-scaling-stroke" stroke="#ebebeb" stroke-width="0.200mm" fpd:engraving="1" />
<path d="
M6.775 26.204
L6.775 24.254
" 
fill="none" vector-effect="non-scaling-stroke" stroke="#ebebeb" stroke-width="0.200mm" fpd:engraving="1" />
<path d="
M7.370 24.254
L7.370 26.204
L7.370 25.604
A0.600,0.420 -90.000 0,0 8.210,25.604
L8.210 24.254
" 
fill="none" vector-effect="non-scaling-stroke" stroke="#ebebeb" stroke-width="0.200mm" fpd:engraving="1" />
<path d="
M8.787 26.504
L9.260 27.254
L9.260 24.254
" 
fill="none" vector-effect="non-scaling-stroke" stroke="#ebebeb" stroke-width="0.200mm" fpd:engraving="1" />
<path d="
M17.244 25.754
L17.717 25.754
A0.750,0.525 -90.000 0,1 17.717,27.254
L17.244 27.254
L17.244 24.254
" 
fill="none" vector-effect="non-scaling-stroke" stroke="#ebebeb" stroke-width="0.200mm" fpd:engraving="1" />
<path d="
M19.747 26.604
A0.650,0.455 -90.000 0,1 18.837,26.604
L18.837 24.904
A0.650,0.455 -90.000 0,1 19.747,24.904
" 
fill="none" vector-effect="non-scaling-stroke" stroke="#ebebeb" stroke-width="0.200mm" fpd:engraving="1" />
<path d="
M20.342 27.254
L20.814 24.254
L21.287 27.254
" 
fill="none" vector-effect="non-scaling-stroke" stroke="#ebebeb" stroke-width="0.200mm" fpd:engraving="1" />
<path d="
M22.547 27.254
L21.864 25.004
L22.757 25.004
" 
fill="none" vector-effect="non-scaling-stroke" stroke="#ebebeb" stroke-width="0.200mm" fpd:engraving="1" />
<path d="
M22.547 25.754
L22.547 24.254
" 
fill="none" vector-effect="non-scaling-stroke" stroke="#ebebeb" stroke-width="0.200mm" fpd:engraving="1" />
<path d="
M31.367 27.254
L30.527 27.254
L30.527 24.254
L30.527 25.754
L31.052 25.754
" 
fill="none" vector-effect="non-scaling-stroke" stroke="#ebebeb" stroke-width="0.200mm" fpd:engraving="1" />
<path d="
M31.962 27.254
L31.962 27.029
" 
fill="none" vector-effect="non-scaling-stroke" stroke="#ebebeb" stroke-width="0.200mm" fpd:engraving="1" />
<path d="
M31.962 26.204
L31.962 24.254
" 
fill="none" vector-effect="non-scaling-stroke" stroke="#ebebeb" stroke-width="0.200mm" fpd:engraving="1" />
<path d="
M32.557 24.254
L32.557 26.204
L32.557 25.604
A0.600,0.420 -90.000 0,0 33.397,25.604
L33.397 24.254
" 
fill="none" vector-effect="non-scaling-stroke" stroke="#ebebeb" stroke-width="0.200mm" fpd:engraving="1" />
<path d="
M33.975 26.579
A0.619,0.433 -90.000 0,0 34.395,27.254
A0.654,0.458 -90.000 0,0 34.815,26.279
L33.975 24.254
L34.867 24.254
" 
fill="none" vector-effect="non-scaling-stroke" stroke="#ebebeb" stroke-width="0.200mm" fpd:engraving="1" />
<path d="
M4.754 39.724
L5.227 39.724
A0.750,0.525 -90.000 0,1 5.227,41.224
L4.754 41.224
L4.754 38.224
" 
fill="none" vector-effect="non-scaling-stroke" stroke="#ebebeb" stroke-width="0.200mm" fpd:engraving="1" />
<path d="
M7.257 40.574
A0.650,0.455 -90.000 0,1 6.347,40.574
L6.347 38.874
A0.650,0.455 -90.000 0,1 7.257,38.874
" 
fill="none" vector-effect="non-scaling-stroke" stroke="#ebebeb" stroke-width="0.200mm" fpd:engraving="1" />
<path d="
M7.852 41.224
L8.324 38.224
L8.797 41.224
" 
fill="none" vector-effect="non-scaling-stroke" stroke="#ebebeb" stroke-width="0.200mm" fpd:engraving="1" />
<path d="
M9.374 40.474
L9.847 41.224
L9.847 38.224
" 
fill="none" vector-effect="non-scaling-stroke" stroke="#ebebeb" stroke-width="0.200mm" fpd:engraving="1" />
<path d="
M17.241 39.724
L17.713 39.724
A0.750,0.525 -90.000 0,1 17.713,41.224
L17.241 41.224
L17.241 38.224
" 
fill="none" vector-effect="non-scaling-stroke" stroke="#ebebeb" stroke-width="0.200mm" fpd:engraving="1" />
<path d="
M19.743 40.574
A0.650,0.455 -90.000 0,1 18.833,40.574
L18.833 38.874
A0.650,0.455 -90.000 0,1 19.743,38.874
" 
fill="none" vector-effect="non-scaling-stroke" stroke="#ebebeb" stroke-width="0.200mm" fpd:engraving="1" />
<path d="
M20.338 41.224
L20.811 38.224
L21.283 41.224
" 
fill="none" vector-effect="non-scaling-stroke" stroke="#ebebeb" stroke-width="0.200mm" fpd:engraving="1" />
<path d="
M21.861 40.549
A0.619,0.433 -90.000 0,0 22.281,41.224
A0.654,0.458 -90.000 0,0 22.701,40.249
L21.861 38.224
L22.753 38.224
" 
fill="none" vector-effect="non-scaling-stroke" stroke="#ebebeb" stroke-width="0.200mm" fpd:engraving="1" />
<path d="
M29.859 39.724
L30.332 39.724
A0.750,0.525 -90.000 0,1 30.332,41.224
L29.859 41.224
L29.859 38.224
" 
fill="none" vector-effect="non-scaling-stroke" stroke="#ebebeb" stroke-width="0.200mm" fpd:engraving="1" />
<path d="
M32.362 40.574
A0.650,0.455 -90.000 0,1 31.452,40.574
L31.452 38.874
A0.650,0.455 -90.000 0,1 32.362,38.874
" 
fill="none" vector-effect="non-scaling-stroke" stroke="#ebebeb" stroke-width="0.200mm" fpd:engraving="1" />
<path d="
M32.957 41.224
L33.429 38.224
L33.902 41.224
" 
fill="none" vector-effect="non-scaling-stroke" stroke="#ebebeb" stroke-width="0.200mm" fpd:engraving="1" />
<path d="
M34.532 40.624
A0.615,0.431 -90.000 0,0 35.074,41.174
A0.664,0.465 -90.000 0,0 34.899,39.874
A0.819,0.573 -90.000 0,0 35.127,38.274
A0.723,0.506 -90.000 0,0 34.479,38.899
" 
fill="none" vector-effect="non-scaling-stroke" stroke="#ebebeb" stroke-width="0.200mm" fpd:engraving="1" />
<path d="
M30.625 71.570
L29.438 73.626
" 
fill="none" vector-effect="non-scaling-stroke" stroke="#ebebeb" stroke-width="0.400mm" fpd:engraving="1" />
<path d="
M31.698 75.886
L33.754 74.699
" 
fill="none" vector-effect="non-scaling-stroke" stroke="#ebebeb" stroke-width="0.400mm" fpd:engraving="1" />
<path d="
M34.900 78.974
L32.525 78.974
" 
fill="none" vector-effect="non-scaling-stroke" stroke="#ebebeb" stroke-width="0.400mm" fpd:engraving="1" />
<path d="
M31.698 82.062
L33.754 83.249
" 
fill="none" vector-effect="non-scaling-stroke" stroke="#ebebeb" stroke-width="0.400mm" fpd:engraving="1" />
<path d="
M30.625 86.378
L29.438 84.322
" 
fill="none" vector-effect="non-scaling-stroke" stroke="#ebebeb" stroke-width="0.400mm" fpd:engraving="1" />
<path d="
M26.350 85.149
L26.350 87.524
" 
fill="none" vector-effect="non-scaling-stroke" stroke="#ebebeb" stroke-width="0.400mm" fpd:engraving="1" />
<path d="
M22.075 86.378
L23.263 84.322
" 
fill="none" vector-effect="non-scaling-stroke" stroke="#ebebeb" stroke-width="0.400mm" fpd:engraving="1" />
<path d="
M21.002 82.062
L18.946 83.249
" 
fill="none" vector-effect="non-scaling-stroke" stroke="#ebebeb" stroke-width="0.400mm" fpd:engraving="1" />
<path d="
M17.800 78.974
L20.175 78.974
" 
fill="none" vector-effect="non-scaling-stroke" stroke="#ebebeb" stroke-width="0.400mm" fpd:engraving="1" />
<path d="
M22.075 71.570
L23.263 73.626
" 
fill="none" vector-effect="non-scaling-stroke" stroke="#ebebeb" stroke-width="0.400mm" fpd:engraving="1" />
<path d="
M21.002 75.886
L18.946 74.699
" 
fill="none" vector-effect="non-scaling-stroke" stroke="#ebebeb" stroke-width="0.400mm" fpd:engraving="1" />
<path d="
M31.724 73.600
L30.716 74.608
" 
fill="none" vector-effect="non-scaling-stroke" stroke="#ebebeb" stroke-width="0.200mm" fpd:engraving="1" />
<path d="
M33.691 77.007
L32.315 77.376
" 
fill="none" vector-effect="non-scaling-stroke" stroke="#ebebeb" stroke-width="0.200mm" fpd:engraving="1" />
<path d="
M33.691 80.941
L32.315 80.572
" 
fill="none" vector-effect="non-scaling-stroke" stroke="#ebebeb" stroke-width="0.200mm" fpd:engraving="1" />
<path d="
M31.724 84.348
L30.716 83.340
" 
fill="none" vector-effect="non-scaling-stroke" stroke="#ebebeb" stroke-width="0.200mm" fpd:engraving="1" />
<path d="
M28.317 86.315
L27.948 84.939
" 
fill="none" vector-effect="non-scaling-stroke" stroke="#ebebeb" stroke-width="0.200mm" fpd:engraving="1" />
<path d="
M24.383 86.315
L24.752 84.939
" 
fill="none" vector-effect="non-scaling-stroke" stroke="#ebebeb" stroke-width="0.200mm" fpd:engraving="1" />
<path d="
M20.976 84.348
L21.984 83.340
" 
fill="none" vector-effect="non-scaling-stroke" stroke="#ebebeb" stroke-width="0.200mm" fpd:engraving="1" />
<path d="
M19.009 80.941
L20.385 80.572
" 
fill="none" vector-effect="non-scaling-stroke" stroke="#ebebeb" stroke-width="0.200mm" fpd:engraving="1" />
<path d="
M19.009 77.007
L20.385 77.376
" 
fill="none" vector-effect="non-scaling-stroke" stroke="#ebebeb" stroke-width="0.200mm" fpd:engraving="1" />
<path d="
M21.984 74.608
L20.976 73.600
" 
fill="none" vector-effect="non-scaling-stroke" stroke="#ebebeb" stroke-width="0.200mm" fpd:engraving="1" />
<path d="
M26.032 56.254
L25.192 56.254
L25.192 53.254
L25.192 54.754
L25.717 54.754
" 
fill="none" vector-effect="non-scaling-stroke" stroke="#ebebeb" stroke-width="0.200mm" fpd:engraving="1" />
<path d="
M26.610 55.579
A0.619,0.433 -90.000 0,0 27.030,56.254
A0.654,0.458 -90.000 0,0 27.450,55.279
L26.610 53.254
L27.502 53.254
" 
fill="none" vector-effect="non-scaling-stroke" stroke="#ebebeb" stroke-width="0.200mm" fpd:engraving="1" />
<path d="
M2.989 88.905
L3.587 88.905
L3.288 88.905
L3.288 87.005
" 
fill="none" vector-effect="non-scaling-stroke" stroke="#ebebeb" stroke-width="0.200mm" fpd:engraving="1" />
<path d="
M3.953 88.430
L4.252 88.905
L4.252 87.005
" 
fill="none" vector-effect="non-scaling-stroke" stroke="#ebebeb" stroke-width="0.200mm" fpd:engraving="1" />
<path d="
M33.282 88.904
L33.880 88.904
L33.581 88.904
L33.581 87.004
" 
fill="none" vector-effect="non-scaling-stroke" stroke="#ebebeb" stroke-width="0.200mm" fpd:engraving="1" />
<path d="
M34.280 88.524
A0.390,0.273 -90.000 0,0 34.623,88.872
A0.420,0.294 -90.000 0,0 34.513,88.049
A0.519,0.363 -90.000 0,0 34.657,87.036
A0.458,0.320 -90.000 0,0 34.247,87.431
" 
fill="none" vector-effect="non-scaling-stroke" stroke="#ebebeb" stroke-width="0.200mm" fpd:engraving="1" />
<path d="
M4.861 125.636
A2.600,2.600 0 0,1 4.861,125.164
A1.500,1.500 0 0,1 6.355,123.800
L8.545 123.800
A1.500,1.500 0 0,1 10.039,125.164
A2.600,2.600 0 0,1 10.039,125.636
A1.500,1.500 0 0,1 8.545,127.000
L6.355 127.000
A1.500,1.500 0 0,1 4.861,125.636
" 
fill="#ffffff" vector-effect="non-scaling-stroke" stroke="#000000" stroke-width="0.100mm" />
<path d="
M4.861 3.236
A2.600,2.600 0 0,1 4.861,2.764
A1.500,1.500 0 0,1 6.355,1.400
L8.545 1.400
A1.500,1.500 0 0,1 10.039,2.764
A2.600,2.600 0 0,1 10.039,3.236
A1.500,1.500 0 0,1 8.545,4.600
L6.355 4.600
A1.500,1.500 0 0,1 4.861,3.236
" 
fill="#ffffff" vector-effect="non-scaling-stroke" stroke="#000000" stroke-width="0.100mm" />
<path d="
M23.850 65.004
A2.500,2.500 0 1,0 28.850,65.004
A2.500,2.500 0 1,0 23.850,65.004
" 
fill="#ffffff" vector-effect="non-scaling-stroke" stroke="#000000" stroke-width="0.100mm" />
<path d="
M10.050 65.004
A3.600,3.600 0 1,0 17.250,65.004
A3.600,3.600 0 1,0 10.050,65.004
" 
fill="#ffffff" vector-effect="non-scaling-stroke" stroke="#000000" stroke-width="0.100mm" />
<path d="
M16.900 19.284
A3.100,3.100 0 1,0 23.100,19.284
A3.100,3.100 0 1,0 16.900,19.284
" 
fill="#ffffff" vector-effect="non-scaling-stroke" stroke="#000000" stroke-width="0.100mm" />
<path d="
M4.200 19.284
A3.100,3.100 0 1,0 10.400,19.284
A3.100,3.100 0 1,0 4.200,19.284
" 
fill="#ffffff" vector-effect="non-scaling-stroke" stroke="#000000" stroke-width="0.100mm" />
<path d="
M29.600 19.284
A3.100,3.100 0 1,0 35.800,19.284
A3.100,3.100 0 1,0 29.600,19.284
" 
fill="#ffffff" vector-effect="non-scaling-stroke" stroke="#000000" stroke-width="0.100mm" />
<path d="
M16.900 33.254
A3.100,3.100 0 1,0 23.100,33.254
A3.100,3.100 0 1,0 16.900,33.254
" 
fill="#ffffff" vector-effect="non-scaling-stroke" stroke="#000000" stroke-width="0.100mm" />
<path d="
M4.200 33.254
A3.100,3.100 0 1,0 10.400,33.254
A3.100,3.100 0 1,0 4.200,33.254
" 
fill="#ffffff" vector-effect="non-scaling-stroke" stroke="#000000" stroke-width="0.100mm" />
<path d="
M29.600 33.254
A3.100,3.100 0 1,0 35.800,33.254
A3.100,3.100 0 1,0 29.600,33.254
" 
fill="#ffffff" vector-effect="non-scaling-stroke" stroke="#000000" stroke-width="0.100mm" />
<path d="
M16.900 47.224
A3.100,3.100 0 1,0 23.100,47.224
A3.100,3.100 0 1,0 16.900,47.224
" 
fill="#ffffff" vector-effect="non-scaling-stroke" stroke="#000000" stroke-width="0.100mm" />
<path d="
M4.200 47.224
A3.100,3.100 0 1,0 10.400,47.224
A3.100,3.100 0 1,0 4.200,47.224
" 
fill="#ffffff" vector-effect="non-scaling-stroke" stroke="#000000" stroke-width="0.100mm" />
<path d="
M29.600 47.224
A3.100,3.100 0 1,0 35.800,47.224
A3.100,3.100 0 1,0 29.600,47.224
" 
fill="#ffffff" vector-effect="non-scaling-stroke" stroke="#000000" stroke-width="0.100mm" />
<path d="
M22.750 78.974
A3.600,3.600 0 1,0 29.950,78.974
A3.600,3.600 0 1,0 22.750,78.974
" 
fill="#ffffff" vector-effect="non-scaling-stroke" stroke="#000000" stroke-width="0.100mm" />
<path d="
M11.150 78.974
A2.500,2.500 0 1,0 16.150,78.974
A2.500,2.500 0 1,0 11.150,78.974
" 
fill="#ffffff" vector-effect="non-scaling-stroke" stroke="#000000" stroke-width="0.100mm" />
<path d="
M14.750 106.914
A5.250,5.250 0 1,0 25.250,106.914
A5.250,5.250 0 1,0 14.750,106.914
" 
fill="#ffffff" vector-effect="non-scaling-stroke" stroke="#000000" stroke-width="0.100mm" />
<path d="
M1.970 91.994
A1.650,1.650 0 1,0 5.270,91.994
A1.650,1.650 0 1,0 1.970,91.994
" 
fill="#ffffff" vector-effect="non-scaling-stroke" stroke="#000000" stroke-width="0.100mm" />
<path d="
M32.450 91.994
A1.650,1.650 0 1,0 35.750,91.994
A1.650,1.650 0 1,0 32.450,91.994
" 
fill="#ffffff" vector-effect="non-scaling-stroke" stroke="#000000" stroke-width="0.100mm" />
<path d="
M19.200 99.494
A0.800,0.800 0 1,0 20.800,99.494
A0.800,0.800 0 1,0 19.200,99.494
" 
fill="#ffffff" vector-effect="non-scaling-stroke" stroke="#000000" stroke-width="0.100mm" />
<path d="
M39.500 128.500
A0.500,0.500 0 0,0 40.000,128.000
L40.000 0.500
A0.500,0.500 0 0,0 39.500,0.000
L0.500 0.000
A0.500,0.500 0 0,0 0.000,0.500
L0.000 128.000
A0.500,0.500 0 0,0 0.500,128.500
L39.500 128.500
" 
fill="none" vector-effect="non-scaling-stroke" stroke="#000000" stroke-width="0.100mm" />
<path d="
M-0.112 0.000
L0.112 0.000
M0.000 -0.112
L0.000 0.112
" 
fill="none" vector-effect="non-scaling-stroke" stroke="#ff0000" stroke-width="0.100mm" />
<path d="
M7.338 125.400
L7.562 125.400
M7.450 125.288
L7.450 125.512
" 
fill="none" vector-effect="non-scaling-stroke" stroke="#ff0000" stroke-width="0.100mm" />
<path d="
M7.338 3.000
L7.562 3.000
M7.450 2.888
L7.450 3.112
" 
fill="none" vector-effect="non-scaling-stroke" stroke="#ff0000" stroke-width="0.100mm" />
<path d="
M26.238 65.004
L26.462 65.004
M26.350 64.892
L26.350 65.116
" 
fill="none" vector-effect="non-scaling-stroke" stroke="#ff0000" stroke-width="0.100mm" />
<path d="
M7.119 11.784
L7.343 11.784
M7.231 11.672
L7.231 11.896
" 
fill="none" vector-effect="non-scaling-stroke" stroke="#ff0000" stroke-width="0.100mm" />
<path d="
M31.053 125.404
L31.277 125.404
M31.165 125.292
L31.165 125.516
" 
fill="none" vector-effect="non-scaling-stroke" stroke="#ff0000" stroke-width="0.100mm" />
<path d="
M13.538 54.751
L13.762 54.751
M13.650 54.639
L13.650 54.863
" 
fill="none" vector-effect="non-scaling-stroke" stroke="#ff0000" stroke-width="0.100mm" />
<path d="
M29.954 3.004
L30.178 3.004
M30.066 2.892
L30.066 3.116
" 
fill="none" vector-effect="non-scaling-stroke" stroke="#ff0000" stroke-width="0.100mm" />
<path d="
M7.285 119.533
L7.509 119.533
M7.397 119.421
L7.397 119.645
" 
fill="none" vector-effect="non-scaling-stroke" stroke="#ff0000" stroke-width="0.100mm" />
<path d="
M13.538 65.004
L13.762 65.004
M13.650 64.892
L13.650 65.116
" 
fill="none" vector-effect="non-scaling-stroke" stroke="#ff0000" stroke-width="0.100mm" />
<path d="
M13.538 65.004
L13.762 65.004
M13.650 64.892
L13.650 65.116
" 
fill="none" vector-effect="non-scaling-stroke" stroke="#ff0000" stroke-width="0.100mm" />
<path d="
M32.588 11.784
L32.812 11.784
M32.700 11.672
L32.700 11.896
" 
fill="none" vector-effect="non-scaling-stroke" stroke="#ff0000" stroke-width="0.100mm" />
<path d="
M19.888 11.784
L20.112 11.784
M20.000 11.672
L20.000 11.896
" 
fill="none" vector-effect="non-scaling-stroke" stroke="#ff0000" stroke-width="0.100mm" />
<path d="
M19.888 19.284
L20.112 19.284
M20.000 19.172
L20.000 19.396
" 
fill="none" vector-effect="non-scaling-stroke" stroke="#ff0000" stroke-width="0.100mm" />
<path d="
M7.188 19.284
L7.412 19.284
M7.300 19.172
L7.300 19.396
" 
fill="none" vector-effect="non-scaling-stroke" stroke="#ff0000" stroke-width="0.100mm" />
<path d="
M32.588 19.284
L32.812 19.284
M32.700 19.172
L32.700 19.396
" 
fill="none" vector-effect="non-scaling-stroke" stroke="#ff0000" stroke-width="0.100mm" />
<path d="
M7.188 25.754
L7.412 25.754
M7.300 25.642
L7.300 25.866
" 
fill="none" vector-effect="non-scaling-stroke" stroke="#ff0000" stroke-width="0.100mm" />
<path d="
M19.888 25.754
L20.112 25.754
M20.000 25.642
L20.000 25.866
" 
fill="none" vector-effect="non-scaling-stroke" stroke="#ff0000" stroke-width="0.100mm" />
<path d="
M32.588 25.754
L32.812 25.754
M32.700 25.642
L32.700 25.866
" 
fill="none" vector-effect="non-scaling-stroke" stroke="#ff0000" stroke-width="0.100mm" />
<path d="
M19.888 33.254
L20.112 33.254
M20.000 33.142
L20.000 33.366
" 
fill="none" vector-effect="non-scaling-stroke" stroke="#ff0000" stroke-width="0.100mm" />
<path d="
M7.188 33.254
L7.412 33.254
M7.300 33.142
L7.300 33.366
" 
fill="none" vector-effect="non-scaling-stroke" stroke="#ff0000" stroke-width="0.100mm" />
<path d="
M32.588 33.254
L32.812 33.254
M32.700 33.142
L32.700 33.366
" 
fill="none" vector-effect="non-scaling-stroke" stroke="#ff0000" stroke-width="0.100mm" />
<path d="
M7.188 39.724
L7.412 39.724
M7.300 39.612
L7.300 39.836
" 
fill="none" vector-effect="non-scaling-stroke" stroke="#ff0000" stroke-width="0.100mm" />
<path d="
M19.888 39.724
L20.112 39.724
M20.000 39.612
L20.000 39.836
" 
fill="none" vector-effect="non-scaling-stroke" stroke="#ff0000" stroke-width="0.100mm" />
<path d="
M32.588 39.724
L32.812 39.724
M32.700 39.612
L32.700 39.836
" 
fill="none" vector-effect="non-scaling-stroke" stroke="#ff0000" stroke-width="0.100mm" />
<path d="
M19.888 47.224
L20.112 47.224
M20.000 47.112
L20.000 47.336
" 
fill="none" vector-effect="non-scaling-stroke" stroke="#ff0000" stroke-width="0.100mm" />
<path d="
M7.188 47.224
L7.412 47.224
M7.300 47.112
L7.300 47.336
" 
fill="none" vector-effect="non-scaling-stroke" stroke="#ff0000" stroke-width="0.100mm" />
<path d="
M32.588 47.224
L32.812 47.224
M32.700 47.112
L32.700 47.336
" 
fill="none" vector-effect="non-scaling-stroke" stroke="#ff0000" stroke-width="0.100mm" />
<path d="
M26.238 78.974
L26.462 78.974
M26.350 78.862
L26.350 79.086
" 
fill="none" vector-effect="non-scaling-stroke" stroke="#ff0000" stroke-width="0.100mm" />
<path d="
M26.238 78.974
L26.462 78.974
M26.350 78.862
L26.350 79.086
" 
fill="none" vector-effect="non-scaling-stroke" stroke="#ff0000" stroke-width="0.100mm" />
<path d="
M13.538 78.974
L13.762 78.974
M13.650 78.862
L13.650 79.086
" 
fill="none" vector-effect="non-scaling-stroke" stroke="#ff0000" stroke-width="0.100mm" />
<path d="
M26.238 54.754
L26.462 54.754
M26.350 54.642
L26.350 54.866
" 
fill="none" vector-effect="non-scaling-stroke" stroke="#ff0000" stroke-width="0.100mm" />
<path d="
M19.888 106.914
L20.112 106.914
M20.000 106.802
L20.000 107.026
" 
fill="none" vector-effect="non-scaling-stroke" stroke="#ff0000" stroke-width="0.100mm" />
<path d="
M3.508 91.994
L3.732 91.994
M3.620 91.882
L3.620 92.106
" 
fill="none" vector-effect="non-scaling-stroke" stroke="#ff0000" stroke-width="0.100mm" />
<path d="
M33.988 91.994
L34.212 91.994
M34.100 91.882
L34.100 92.106
" 
fill="none" vector-effect="non-scaling-stroke" stroke="#ff0000" stroke-width="0.100mm" />
<path d="
M3.508 87.955
L3.732 87.955
M3.620 87.843
L3.620 88.067
" 
fill="none" vector-effect="non-scaling-stroke" stroke="#ff0000" stroke-width="0.100mm" />
<path d="
M33.988 87.954
L34.212 87.954
M34.100 87.842
L34.100 88.066
" 
fill="none" vector-effect="non-scaling-stroke" stroke="#ff0000" stroke-width="0.100mm" />
<path d="
M19.888 99.494
L20.112 99.494
M20.000 99.382
L20.000 99.606
" 
fill="none" vector-effect="non-scaling-stroke" stroke="#ff0000" stroke-width="0.100mm" />
</g>
</svg>
